<svg xmlns="http://www.w3.org/2000/svg" width="720" height="360" viewBox="0 0 720 360"><rect width="720" height="360" fill="#6F8794"/><path d="M0 125h720v235H0z" fill="#4A3321"/><g fill="#D6A73A"><path d="M80 330V150l-30 55 30-20 35 45-35-18"/><path d="M205 330V125l-38 72 38-27 42 60-42-20"/><path d="M360 330V105l-45 80 45-30 48 74-48-25"/><path d="M520 330V132l-35 68 35-24 42 60-42-22"/><path d="M640 330V165l-28 58 28-19 34 46-34-18"/></g><rect x="12" y="12" width="696" height="336" fill="none" stroke="#8A6A35" stroke-width="5"/></svg>
