<svg xmlns="http://www.w3.org/2000/svg" width="1100" height="520" viewBox="0 0 1100 520" role="img" aria-labelledby="title desc">
  <title id="title">Home farm overview placeholder</title>
  <desc id="desc">Painterly placeholder farm overview with farmhouse, barn, machine shed, fields, road, fence lines, and weathered sky.</desc>
  <defs>
    <linearGradient id="sky" x1="0" x2="0" y1="0" y2="1"><stop offset="0" stop-color="#6F8794"/><stop offset=".6" stop-color="#332418"/><stop offset="1" stop-color="#15110C"/></linearGradient>
    <linearGradient id="field" x1="0" x2="1"><stop offset="0" stop-color="#7FA36A"/><stop offset=".55" stop-color="#D6A73A"/><stop offset="1" stop-color="#4A3321"/></linearGradient>
  </defs>
  <rect width="1100" height="520" fill="#15110C"/>
  <rect width="1100" height="310" fill="url(#sky)"/>
  <path d="M0 305 C220 255 385 320 560 285 C775 245 925 265 1100 220 L1100 520 L0 520Z" fill="url(#field)"/>
  <path d="M0 405 C240 350 430 430 650 375 C830 332 970 345 1100 318" fill="none" stroke="#8A6A35" stroke-width="7" opacity=".65"/>
  <path d="M575 520 C610 430 710 358 905 310" fill="none" stroke="#9A907F" stroke-width="42" opacity=".6"/>
  <path d="M580 520 C618 440 718 374 900 326" fill="none" stroke="#332418" stroke-width="19" opacity=".55"/>
  <g stroke="#E8D8B8" stroke-width="4" opacity=".75">
    <path d="M40 385h275M48 357h245M58 329h220"/>
    <path d="M42 344v52M110 335v58M178 330v55M246 334v48"/>
  </g>
  <g>
    <rect x="126" y="244" width="135" height="78" fill="#E8D8B8" stroke="#332418" stroke-width="5"/>
    <path d="M112 246 L194 186 L278 246Z" fill="#A64A35" stroke="#332418" stroke-width="5"/>
    <rect x="170" y="278" width="28" height="44" fill="#332418"/>
    <rect x="216" y="266" width="25" height="24" fill="#6F8794"/>
  </g>
  <g>
    <rect x="350" y="227" width="178" height="100" fill="#4A3321" stroke="#15110C" stroke-width="6"/>
    <path d="M331 229 L439 158 L548 229Z" fill="#A64A35" stroke="#15110C" stroke-width="6"/>
    <rect x="410" y="260" width="58" height="67" fill="#241A12" stroke="#8A6A35" stroke-width="4"/>
  </g>
  <g>
    <rect x="612" y="254" width="150" height="68" fill="#5D5850" stroke="#15110C" stroke-width="5"/>
    <path d="M600 255 L688 205 L777 255Z" fill="#6F8794" stroke="#15110C" stroke-width="5"/>
    <circle cx="666" cy="319" r="17" fill="#15110C" stroke="#8A6A35" stroke-width="5"/>
    <circle cx="732" cy="319" r="15" fill="#15110C" stroke="#8A6A35" stroke-width="5"/>
  </g>
  <g opacity=".88">
    <path d="M805 250 C850 218 917 214 970 236 C1010 252 1034 280 1085 280" fill="none" stroke="#D6A73A" stroke-width="9"/>
    <path d="M805 278 C890 253 965 264 1100 246" fill="none" stroke="#7FA36A" stroke-width="10"/>
  </g>
  <rect x="16" y="16" width="1068" height="488" rx="10" fill="none" stroke="#8A6A35" stroke-width="5" opacity=".72"/>
</svg>
